<?xml version="1.0" encoding="utf-8"?>
<!-- Generator: Adobe Illustrator 16.0.0, SVG Export Plug-In . SVG Version: 6.00 Build 0)  -->
<!DOCTYPE svg PUBLIC "-//W3C//DTD SVG 1.1//EN" "http://www.w3.org/Graphics/SVG/1.1/DTD/svg11.dtd">
<svg version="1.1" id="Layer_1" xmlns="http://www.w3.org/2000/svg" xmlns:xlink="http://www.w3.org/1999/xlink" x="0px" y="0px"
	 width="4.765px" height="4.523px" viewBox="0 0 4.765 4.523" enable-background="new 0 0 4.765 4.523" xml:space="preserve">
<g>
	<circle fill="#6CB3E6" cx="2.262" cy="2.261" r="2.262"/>
	<g>
		<g>
			<defs>
				<circle id="SVGID_1_" cx="2.263" cy="2.265" r="2.156"/>
			</defs>
			<clipPath id="SVGID_2_">
				<use xlink:href="#SVGID_1_"  overflow="visible"/>
			</clipPath>
			<circle clip-path="url(#SVGID_2_)" fill="#009BDE" cx="2.263" cy="2.265" r="2.156"/>
			<polygon clip-path="url(#SVGID_2_)" fill="#05CE7C" points="2.252,3.109 2.1,3.053 2.011,2.858 1.553,2.786 1.302,2.355 
				1.221,2.373 1.283,2.608 1.266,2.651 0.961,2.203 1.023,1.871 0.898,1.333 0.755,1.261 0.459,1.431 0.324,1.61 0.414,1.395 
				0.333,1.351 0.324,1.234 0.33,1.149 0.432,1.028 0.458,0.815 0.602,0.875 0.853,0.741 1.221,0.858 1.454,0.696 1.723,0.812 
				1.965,0.75 2.163,0.867 2.011,1.073 1.965,1.314 2.136,1.387 2.163,1.495 2.271,1.495 2.261,1.198 2.405,1.081 2.79,1.36 
				2.79,1.44 2.61,1.521 2.521,1.862 2.286,2.074 2.385,2.348 2.314,2.364 2.153,2.185 1.821,2.247 1.867,2.651 2.073,2.678 
				2.252,3 2.369,3.053 			"/>
			<polygon clip-path="url(#SVGID_2_)" fill="#05CE7C" points="2.279,3.053 2.248,3.221 2.131,3.312 2.171,3.457 2.417,3.623 
				2.55,3.623 2.664,3.84 2.703,4.328 2.79,4.408 2.855,4.314 3.062,3.953 3.284,3.73 3.397,3.398 3.333,3.201 3.112,3.137 
				3.027,3.023 2.86,2.995 2.816,2.866 2.476,2.866 			"/>
			<polygon clip-path="url(#SVGID_2_)" fill="#05CE7C" points="2.188,2.582 2.188,2.551 2.248,2.507 2.364,2.544 2.462,2.507 
				2.552,2.582 2.349,2.635 2.281,2.572 			"/>
			<polygon clip-path="url(#SVGID_2_)" fill="#05CE7C" points="2.654,2.63 2.595,2.669 2.654,2.724 2.875,2.679 2.895,2.64 
				2.792,2.546 2.659,2.586 			"/>
			<polygon clip-path="url(#SVGID_2_)" fill="#05CE7C" points="2.934,2.517 2.934,2.562 2.997,2.562 3.017,2.507 			"/>
			<polygon clip-path="url(#SVGID_2_)" fill="#05CE7C" points="2.364,2.724 2.359,2.773 2.433,2.752 2.433,2.704 			"/>
			<polygon clip-path="url(#SVGID_2_)" fill="#E6E7E8" points="2.208,0.693 2.35,0.734 2.375,0.932 2.496,0.89 2.631,0.974 
				2.631,0.786 2.475,0.572 2.235,0.572 			"/>
			<polygon clip-path="url(#SVGID_2_)" fill="#E6E7E8" points="2.089,0.619 2.146,0.531 2.064,0.437 2.027,0.562 			"/>
			<polygon clip-path="url(#SVGID_2_)" fill="#E6E7E8" points="1.938,0.552 1.751,0.625 1.678,0.505 1.553,0.484 1.605,0.385 
				1.725,0.379 1.678,0.302 1.881,0.25 1.99,0.338 			"/>
			<polygon clip-path="url(#SVGID_2_)" fill="#E6E7E8" points="2.267,0.167 2.188,0.297 2.251,0.323 2.225,0.448 2.36,0.385 
				2.381,0.167 2.313,0.104 			"/>
			<polygon clip-path="url(#SVGID_2_)" fill="#E6E7E8" points="1.985,0.146 2.043,0.25 2.126,0.167 2.074,0.067 			"/>
			<polygon clip-path="url(#SVGID_2_)" fill="#E6E7E8" points="2.5,0.208 2.459,0.312 2.527,0.391 2.6,0.328 			"/>
			<polygon clip-path="url(#SVGID_2_)" fill="#E6E7E8" points="2.158,1.016 2.158,1.088 2.225,1.067 			"/>
			<polygon clip-path="url(#SVGID_2_)" fill="#E6E7E8" points="2.709,0.26 2.735,0.51 2.892,0.474 2.912,0.609 3.188,1.051 
				3.317,0.786 3.464,0.683 3.438,0.505 3.407,0.172 2.86,0.208 			"/>
			<polygon clip-path="url(#SVGID_2_)" fill="#E6E7E8" points="3.47,0.895 3.522,1.026 3.673,1.005 3.72,0.916 3.642,0.87 			"/>
			<polygon clip-path="url(#SVGID_2_)" fill="#05CE7C" points="3.786,1.359 3.86,1.349 3.87,1.442 3.851,1.489 			"/>
			<polygon clip-path="url(#SVGID_2_)" fill="#05CE7C" points="3.985,1.291 3.933,1.375 4.005,1.484 4.104,1.406 4.032,1.166 
				3.954,1.161 3.938,1.219 			"/>
			<polygon clip-path="url(#SVGID_2_)" fill="#05CE7C" points="4.198,1.76 4.136,1.604 4.251,1.453 4.38,1.495 4.491,1.874 
				4.37,1.937 4.325,1.965 4.286,2.145 4.136,2.233 4.046,1.992 			"/>
			<polygon clip-path="url(#SVGID_2_)" fill="#05CE7C" points="4.286,2.348 4.022,2.739 4.104,3.119 4.329,3.057 4.567,2.447 
				4.448,2.348 			"/>
		</g>
		<circle fill="#E6E7E8" cx="4.604" cy="0.19" r="0.16"/>
	</g>
</g>
</svg>
