<?xml version="1.0" encoding="utf-8"?>
<!-- Generator: Adobe Illustrator 16.0.0, SVG Export Plug-In . SVG Version: 6.00 Build 0)  -->
<!DOCTYPE svg PUBLIC "-//W3C//DTD SVG 1.1//EN" "http://www.w3.org/Graphics/SVG/1.1/DTD/svg11.dtd">
<svg version="1.1" id="Layer_1" xmlns="http://www.w3.org/2000/svg" xmlns:xlink="http://www.w3.org/1999/xlink" x="0px" y="0px"
	 width="4.953px" height="4.524px" viewBox="0 0 4.953 4.524" enable-background="new 0 0 4.953 4.524" xml:space="preserve">
<g>
	<g>
		<circle fill="#F0C385" cx="2.262" cy="2.262" r="2.262"/>
		<g>
			<defs>
				<circle id="SVGID_1_" cx="2.261" cy="2.262" r="2.157"/>
			</defs>
			<clipPath id="SVGID_2_">
				<use xlink:href="#SVGID_1_"  overflow="visible"/>
			</clipPath>
			<circle clip-path="url(#SVGID_2_)" fill="#D18A00" cx="2.261" cy="2.262" r="2.157"/>
			<rect x="-0.225" y="3.185" opacity="0.5" clip-path="url(#SVGID_2_)" fill="#E2A649" width="5.158" height="0.697"/>
			<rect x="-0.225" y="2.997" opacity="0.5" clip-path="url(#SVGID_2_)" fill="#D18A00" width="5.158" height="0.701"/>
			<rect x="-0.225" y="2.391" opacity="0.5" clip-path="url(#SVGID_2_)" fill="#FAE0C1" width="5.158" height="0.696"/>
			<rect x="-0.225" y="1.564" opacity="0.5" clip-path="url(#SVGID_2_)" fill="#FAE0C1" width="5.158" height="0.697"/>
			<rect x="-0.225" y="0.708" opacity="0.5" clip-path="url(#SVGID_2_)" fill="#DFA03C" width="5.158" height="0.698"/>
			<ellipse clip-path="url(#SVGID_2_)" fill="#DB9A2D" cx="1.488" cy="3.167" rx="0.499" ry="0.246"/>
			<circle opacity="0.5" clip-path="url(#SVGID_2_)" fill="#FAE0C1" cx="2.434" cy="0.922" r="0.08"/>
			<circle opacity="0.5" clip-path="url(#SVGID_2_)" fill="#FAE0C1" cx="2.105" cy="3.542" r="0.065"/>
			<circle opacity="0.5" clip-path="url(#SVGID_2_)" fill="#FAE0C1" cx="1.8" cy="3.599" r="0.058"/>
			<circle opacity="0.5" clip-path="url(#SVGID_2_)" fill="#FAE0C1" cx="1.463" cy="3.698" r="0.099"/>
			<circle opacity="0.5" clip-path="url(#SVGID_2_)" fill="#FAE0C1" cx="1.026" cy="3.698" r="0.098"/>
			<circle opacity="0.5" clip-path="url(#SVGID_2_)" fill="#FAE0C1" cx="0.903" cy="3.478" r="0.065"/>
			<circle opacity="0.5" clip-path="url(#SVGID_2_)" fill="#FAE0C1" cx="2.056" cy="0.854" r="0.07"/>
			<circle opacity="0.5" clip-path="url(#SVGID_2_)" fill="#FAE0C1" cx="2.726" cy="0.704" r="0.079"/>
			<rect x="-0.225" y="1.912" opacity="0.5" clip-path="url(#SVGID_2_)" fill="#E2A649" width="5.158" height="0.7"/>
			<ellipse opacity="0.5" clip-path="url(#SVGID_2_)" fill="#FAE0C1" cx="1.488" cy="3.167" rx="0.373" ry="0.184"/>
		</g>
	</g>
	<circle fill="#F0C385" cx="4.639" cy="3.046" r="0.033"/>
	<circle fill="#F1F2F2" cx="4.921" cy="2.14" r="0.032"/>
	<circle fill="#F0C385" cx="4.523" cy="0.745" r="0.033"/>
	<circle fill="#58595B" cx="4.67" cy="1.58" r="0.033"/>
</g>
</svg>
