<?xml version="1.0" encoding="utf-8"?>
<!-- Generator: Adobe Illustrator 16.0.0, SVG Export Plug-In . SVG Version: 6.00 Build 0)  -->
<!DOCTYPE svg PUBLIC "-//W3C//DTD SVG 1.1//EN" "http://www.w3.org/Graphics/SVG/1.1/DTD/svg11.dtd">
<svg version="1.1" id="Layer_1" xmlns="http://www.w3.org/2000/svg" xmlns:xlink="http://www.w3.org/1999/xlink" x="0px" y="0px"
	 width="4.524px" height="4.524px" viewBox="0 0 4.524 4.524" enable-background="new 0 0 4.524 4.524" xml:space="preserve">
<g>
	<circle fill="#BCBEC0" cx="2.262" cy="2.263" r="2.262"/>
	<g>
		<defs>
			<circle id="SVGID_1_" cx="2.263" cy="2.263" r="2.156"/>
		</defs>
		<clipPath id="SVGID_2_">
			<use xlink:href="#SVGID_1_"  overflow="visible"/>
		</clipPath>
		<circle clip-path="url(#SVGID_2_)" fill="#E6E7E8" cx="2.263" cy="2.263" r="2.156"/>
		<circle opacity="0.5" clip-path="url(#SVGID_2_)" fill="#BCBEC0" cx="1.716" cy="2.422" r="0.177"/>
		<polygon opacity="0.5" clip-path="url(#SVGID_2_)" fill="#BCBEC0" points="-0.035,2.784 1.003,3.435 1.412,3.845 1.644,3.845 
			1.412,3.192 1.893,2.994 3.301,4.474 0.617,4.861 		"/>
		<polygon opacity="0.5" clip-path="url(#SVGID_2_)" fill="#BCBEC0" points="1.633,0.432 1.539,0.829 0.893,1.26 0.716,1.967 
			0.871,2.263 2.14,1.866 2.351,1.503 1.998,0.818 2.483,-0.077 1.356,-0.044 		"/>
		<polyline opacity="0.5" clip-path="url(#SVGID_2_)" fill="#BCBEC0" points="3.356,1.094 3.455,1.414 3.897,1.414 		"/>
		<circle opacity="0.5" clip-path="url(#SVGID_2_)" fill="#BCBEC0" cx="2.912" cy="3.125" r="0.128"/>
		<circle opacity="0.5" clip-path="url(#SVGID_2_)" fill="#BCBEC0" cx="3.3" cy="3.167" r="0.088"/>
		<circle opacity="0.5" clip-path="url(#SVGID_2_)" fill="#BCBEC0" cx="3.213" cy="2.936" r="0.061"/>
		<circle opacity="0.5" clip-path="url(#SVGID_2_)" fill="#BCBEC0" cx="2.411" cy="1.253" r="0.06"/>
		<circle opacity="0.5" clip-path="url(#SVGID_2_)" fill="#BCBEC0" cx="2.101" cy="1.153" r="0.06"/>
		<circle opacity="0.5" clip-path="url(#SVGID_2_)" fill="#BCBEC0" cx="3.627" cy="3.291" r="0.087"/>
		<circle opacity="0.5" clip-path="url(#SVGID_2_)" fill="#BCBEC0" cx="3.444" cy="3.465" r="0.087"/>
		<circle opacity="0.5" clip-path="url(#SVGID_2_)" fill="#BCBEC0" cx="3.053" cy="3.478" r="0.1"/>
		<circle opacity="0.5" clip-path="url(#SVGID_2_)" fill="#BCBEC0" cx="2.682" cy="3.378" r="0.101"/>
		<circle opacity="0.5" clip-path="url(#SVGID_2_)" fill="#BCBEC0" cx="3.105" cy="3.263" r="0.06"/>
		<circle opacity="0.5" clip-path="url(#SVGID_2_)" fill="#BCBEC0" cx="3.336" cy="3.792" r="0.088"/>
		<circle opacity="0.5" clip-path="url(#SVGID_2_)" fill="#BCBEC0" cx="2.946" cy="3.805" r="0.1"/>
		<circle opacity="0.5" clip-path="url(#SVGID_2_)" fill="#BCBEC0" cx="2.574" cy="3.703" r="0.1"/>
		<circle opacity="0.5" clip-path="url(#SVGID_2_)" fill="#BCBEC0" cx="3.931" cy="3.404" r="0.087"/>
		<circle opacity="0.5" clip-path="url(#SVGID_2_)" fill="#BCBEC0" cx="3.845" cy="3.174" r="0.061"/>
		<circle opacity="0.5" clip-path="url(#SVGID_2_)" fill="#BCBEC0" cx="4.258" cy="3.528" r="0.088"/>
		<circle opacity="0.5" clip-path="url(#SVGID_2_)" fill="#BCBEC0" cx="4.075" cy="3.703" r="0.087"/>
		<circle opacity="0.5" clip-path="url(#SVGID_2_)" fill="#BCBEC0" cx="3.685" cy="3.717" r="0.1"/>
		<circle opacity="0.5" clip-path="url(#SVGID_2_)" fill="#BCBEC0" cx="1.903" cy="1.154" r="0.087"/>
		<circle opacity="0.5" clip-path="url(#SVGID_2_)" fill="#BCBEC0" cx="1.99" cy="1.384" r="0.06"/>
		<circle opacity="0.5" clip-path="url(#SVGID_2_)" fill="#BCBEC0" cx="1.577" cy="1.03" r="0.087"/>
		<circle opacity="0.5" clip-path="url(#SVGID_2_)" fill="#BCBEC0" cx="1.76" cy="0.854" r="0.087"/>
		<circle opacity="0.5" clip-path="url(#SVGID_2_)" fill="#BCBEC0" cx="2.15" cy="0.843" r="0.101"/>
		<circle opacity="0.5" clip-path="url(#SVGID_2_)" fill="#BCBEC0" cx="2.521" cy="0.942" r="0.101"/>
	</g>
</g>
</svg>
