<?xml version="1.0" encoding="utf-8"?>
<!-- Generator: Adobe Illustrator 16.0.0, SVG Export Plug-In . SVG Version: 6.00 Build 0)  -->
<!DOCTYPE svg PUBLIC "-//W3C//DTD SVG 1.1//EN" "http://www.w3.org/Graphics/SVG/1.1/DTD/svg11.dtd">
<svg version="1.1" id="Layer_1" xmlns="http://www.w3.org/2000/svg" xmlns:xlink="http://www.w3.org/1999/xlink" x="0px" y="0px"
	 width="10.417px" height="5.58px" viewBox="0 0 10.417 5.58" enable-background="new 0 0 10.417 5.58" xml:space="preserve">
<g>
	<circle fill="#FFE6A2" cx="5.212" cy="2.949" r="2.263"/>
	<g>
		<polygon opacity="0.5" fill="#FAE0C1" points="7.683,1.921 7.683,1.921 7.741,2.044 		"/>
		<polygon opacity="0.5" fill="#E2A649" points="7.777,2.121 7.741,2.044 7.777,2.121 		"/>
		<path fill="#F7CE3C" d="M4.289,1.001C3.766,1.25,3.393,1.683,3.201,2.184l2.691-1.276C5.384,0.739,4.812,0.753,4.289,1.001z"/>
		<path fill="#F7CE3C" d="M6.634,1.331L3.06,3.024c0.002,0.055,0.014,0.108,0.02,0.163L6.748,1.45
			C6.71,1.41,6.675,1.367,6.634,1.331z"/>
		<path fill="#F7CE3C" d="M4.632,5.017c0.483,0.136,1.014,0.114,1.503-0.118S6.978,4.271,7.18,3.811L4.632,5.017z"/>
		<path fill="#F7CE3C" d="M7.271,3.562l-2.89,1.369c0.082,0.034,0.165,0.062,0.25,0.086L7.18,3.811
			C7.215,3.729,7.246,3.646,7.271,3.562z"/>
		<path opacity="0.5" fill="#E2A649" d="M7.271,3.562l-2.89,1.369c0.082,0.034,0.165,0.062,0.25,0.086L7.18,3.811
			C7.215,3.729,7.246,3.646,7.271,3.562z"/>
		<path fill="#F7CE3C" d="M7.365,2.844L3.769,4.549c0.026,0.024,0.057,0.043,0.085,0.066l3.509-1.664
			C7.362,2.916,7.367,2.88,7.365,2.844z"/>
		<path opacity="0.5" fill="#D18A00" d="M7.365,2.844L3.769,4.549c0.026,0.024,0.057,0.043,0.085,0.066l3.509-1.664
			C7.362,2.916,7.367,2.88,7.365,2.844z"/>
		<path fill="#F7CE3C" d="M3.854,4.615c0.161,0.131,0.339,0.236,0.528,0.315l2.89-1.369c0.059-0.197,0.09-0.402,0.091-0.61
			L3.854,4.615z"/>
		<path opacity="0.5" fill="#E2A649" d="M3.854,4.615c0.161,0.131,0.339,0.236,0.528,0.315l2.89-1.369
			c0.059-0.197,0.09-0.402,0.091-0.61L3.854,4.615z"/>
		<path opacity="0.5" fill="#D18A00" d="M3.854,4.615c0.161,0.131,0.339,0.236,0.528,0.315l2.89-1.369
			c0.059-0.197,0.09-0.402,0.091-0.61L3.854,4.615z"/>
		<path fill="#F7CE3C" d="M7.278,2.357L3.446,4.174c0.077,0.111,0.163,0.213,0.258,0.305L7.352,2.75
			C7.34,2.618,7.316,2.487,7.278,2.357z"/>
		<path opacity="0.5" fill="#FAE0C1" d="M7.278,2.357L3.446,4.174c0.077,0.111,0.163,0.213,0.258,0.305L7.352,2.75
			C7.34,2.618,7.316,2.487,7.278,2.357z"/>
		<path fill="#F7CE3C" d="M7.352,2.75L3.704,4.479c0.022,0.023,0.041,0.05,0.064,0.07l3.597-1.705
			C7.364,2.813,7.354,2.781,7.352,2.75z"/>
		<path opacity="0.5" fill="#D18A00" d="M7.352,2.75L3.704,4.479c0.022,0.023,0.041,0.05,0.064,0.07l3.597-1.705
			C7.364,2.813,7.354,2.781,7.352,2.75z"/>
		<path opacity="0.5" fill="#FAE0C1" d="M7.352,2.75L3.704,4.479c0.022,0.023,0.041,0.05,0.064,0.07l3.597-1.705
			C7.364,2.813,7.354,2.781,7.352,2.75z"/>
		<path fill="#F7CE3C" d="M6.979,1.727C6.91,1.626,6.832,1.535,6.748,1.45L3.079,3.188c0.014,0.119,0.034,0.237,0.067,0.354
			L6.979,1.727z"/>
		<path opacity="0.5" fill="#FAE0C1" d="M6.979,1.727C6.91,1.626,6.832,1.535,6.748,1.45L3.079,3.188
			c0.014,0.119,0.034,0.237,0.067,0.354L6.979,1.727z"/>
		<path fill="#F7CE3C" d="M5.893,0.908L3.201,2.184C3.1,2.45,3.05,2.735,3.06,3.024l3.574-1.694C6.416,1.14,6.163,0.999,5.893,0.908
			z"/>
		<path opacity="0.5" fill="#DFA03C" d="M5.893,0.908L3.201,2.184C3.1,2.45,3.05,2.735,3.06,3.024l3.574-1.694
			C6.416,1.14,6.163,0.999,5.893,0.908z"/>
		<path fill="#F7CE3C" d="M7.161,2.027L3.265,3.873c0.019,0.039,0.046,0.072,0.066,0.109l3.873-1.835
			C7.188,2.107,7.18,2.066,7.161,2.027z"/>
		<path opacity="0.5" fill="#E2A649" d="M7.161,2.027L3.265,3.873c0.019,0.039,0.046,0.072,0.066,0.109l3.873-1.835
			C7.188,2.107,7.18,2.066,7.161,2.027z"/>
		<path fill="#F7CE3C" d="M7.204,2.147L3.331,3.982c0.036,0.066,0.073,0.131,0.115,0.191l3.832-1.817
			C7.259,2.287,7.232,2.217,7.204,2.147z"/>
		<path opacity="0.5" fill="#FAE0C1" d="M7.204,2.147L3.331,3.982c0.036,0.066,0.073,0.131,0.115,0.191l3.832-1.817
			C7.259,2.287,7.232,2.217,7.204,2.147z"/>
		<path opacity="0.5" fill="#E2A649" d="M7.204,2.147L3.331,3.982c0.036,0.066,0.073,0.131,0.115,0.191l3.832-1.817
			C7.259,2.287,7.232,2.217,7.204,2.147z"/>
		<path fill="#F7CE3C" d="M7.161,2.027c-0.051-0.108-0.115-0.205-0.182-0.3L3.146,3.542c0.032,0.112,0.067,0.223,0.118,0.331l0,0
			L7.161,2.027L7.161,2.027z"/>
		<path opacity="0.5" fill="#FAE0C1" d="M7.161,2.027c-0.051-0.108-0.115-0.205-0.182-0.3L3.146,3.542
			c0.032,0.112,0.067,0.223,0.118,0.331l0,0L7.161,2.027L7.161,2.027z"/>
		<path opacity="0.5" fill="#E2A649" d="M7.161,2.027c-0.051-0.108-0.115-0.205-0.182-0.3L3.146,3.542
			c0.032,0.112,0.067,0.223,0.118,0.331l0,0L7.161,2.027L7.161,2.027z"/>
	</g>
	<g>
		<path fill="#FFE6A2" d="M10.202,0.469c-0.072,0.025-0.178,0.066-0.314,0.122C9.622,0.7,9.247,0.863,8.768,1.077
			c-0.469,0.21-1.012,0.458-1.604,0.73c0.008,0.012,0.015,0.023,0.021,0.035C7.197,1.866,7.211,1.89,7.224,1.914
			C7.229,1.926,7.236,1.938,7.242,1.95c0.757-0.351,1.401-0.641,1.903-0.863c-0.49,0.247-1.122,0.561-1.874,0.926
			C6.664,2.308,5.98,2.636,5.231,2.991C4.483,3.345,3.797,3.667,3.183,3.95C2.426,4.301,1.781,4.592,1.28,4.812
			C1.77,4.566,2.402,4.252,3.153,3.888C3.147,3.875,3.142,3.862,3.137,3.85C3.126,3.824,3.115,3.801,3.105,3.775
			C3.102,3.763,3.097,3.75,3.092,3.736C2.507,4.021,1.971,4.285,1.51,4.516C1.042,4.75,0.679,4.938,0.426,5.074
			C0.297,5.145,0.198,5.199,0.133,5.24C0.055,5.289-0.029,5.338,0.01,5.416c0.036,0.078,0.127,0.047,0.214,0.016
			C0.296,5.406,0.401,5.365,0.537,5.31C0.804,5.2,1.18,5.037,1.656,4.824c0.47-0.211,1.015-0.459,1.604-0.731
			c0.638-0.294,1.328-0.618,2.04-0.955C6.014,2.8,6.702,2.47,7.333,2.164c0.585-0.284,1.12-0.548,1.582-0.779
			C9.383,1.15,9.747,0.962,9.999,0.826c0.129-0.07,0.229-0.125,0.293-0.166c0.08-0.048,0.162-0.099,0.125-0.176
			C10.379,0.407,10.288,0.438,10.202,0.469z"/>
	</g>
	<g>
		<path fill="#F0C385" d="M10.215,0.507c-0.072,0.025-0.178,0.065-0.311,0.121C9.639,0.737,9.262,0.9,8.786,1.113
			c-0.469,0.209-1.011,0.457-1.6,0.729C7.197,1.866,7.211,1.89,7.224,1.914c1.398-0.647,2.404-1.091,2.855-1.27
			C9.655,0.88,8.675,1.376,7.288,2.05c-0.607,0.294-1.29,0.622-2.04,0.976C4.5,3.383,3.813,3.703,3.2,3.986
			c-1.398,0.646-2.402,1.091-2.853,1.27C0.77,5.021,1.751,4.523,3.137,3.85C3.126,3.824,3.115,3.801,3.105,3.775
			C2.522,4.059,1.988,4.322,1.528,4.553C1.062,4.786,0.697,4.974,0.444,5.111C0.316,5.18,0.218,5.234,0.154,5.273
			C0.069,5.327,0.026,5.356,0.046,5.398c0.021,0.043,0.07,0.027,0.164-0.004c0.072-0.025,0.176-0.066,0.311-0.123
			C0.786,5.163,1.163,5,1.641,4.787c0.468-0.21,1.01-0.457,1.6-0.729c0.639-0.294,1.331-0.618,2.043-0.957
			c0.715-0.338,1.404-0.668,2.035-0.976c0.584-0.283,1.118-0.546,1.579-0.777c0.467-0.234,0.83-0.423,1.084-0.559
			c0.127-0.068,0.225-0.125,0.289-0.164c0.086-0.052,0.129-0.082,0.109-0.124C10.36,0.458,10.309,0.475,10.215,0.507z"/>
	</g>
	<circle fill="#F0C385" cx="6.704" cy="0.408" r="0.033"/>
	<circle fill="#F0C385" cx="2.027" cy="5.547" r="0.032"/>
	<circle fill="#F0C385" cx="1.438" cy="3.598" r="0.032"/>
	<circle fill="#F0C385" cx="9.696" cy="0.026" r="0.032"/>
	<circle fill="#F0C385" cx="9.563" cy="1.656" r="0.032"/>
	<circle fill="#F0C385" cx="8.482" cy="1.972" r="0.032"/>
	<circle fill="#F0C385" cx="2.627" cy="3.506" r="0.032"/>
</g>
</svg>
