<?xml version="1.0" encoding="utf-8"?>
<!-- Generator: Adobe Illustrator 16.0.0, SVG Export Plug-In . SVG Version: 6.00 Build 0)  -->
<!DOCTYPE svg PUBLIC "-//W3C//DTD SVG 1.1//EN" "http://www.w3.org/Graphics/SVG/1.1/DTD/svg11.dtd">
<svg version="1.1" id="Layer_1" xmlns="http://www.w3.org/2000/svg" xmlns:xlink="http://www.w3.org/1999/xlink" x="0px" y="0px"
	 width="4.525px" height="4.524px" viewBox="0 0 4.525 4.524" enable-background="new 0 0 4.525 4.524" xml:space="preserve">
<g>
	<circle fill="#D18A00" cx="2.263" cy="2.262" r="2.263"/>
	<g>
		<defs>
			<circle id="SVGID_1_" cx="2.262" cy="2.262" r="2.156"/>
		</defs>
		<clipPath id="SVGID_2_">
			<use xlink:href="#SVGID_1_"  overflow="visible"/>
		</clipPath>
		<circle clip-path="url(#SVGID_2_)" fill="#FFC627" cx="2.262" cy="2.262" r="2.156"/>
		<path opacity="0.5" clip-path="url(#SVGID_2_)" fill="#D18A00" d="M0.605,3.459c0,0,0.625-0.804,1.776-1.165
			c0,0,1.94-0.659,1.381-1.07c0,0-2.03-0.656-2.683-0.148C0.43,1.584,1.513,2.134,0.416,3.193L0.028,3.842L0.605,3.459z"/>
		<path opacity="0.5" clip-path="url(#SVGID_2_)" fill="#D18A00" d="M3.916,0.877c0,0-1.437-0.377-2.159-0.228
			c0,0-0.507,0.081-0.279-0.396l0.937-0.657L4.192,0.5L3.916,0.877z"/>
		<path opacity="0.5" clip-path="url(#SVGID_2_)" fill="#D18A00" d="M1.021,4.459c0,0,0.868-0.568,1.658-0.586
			c0,0,0.198,0.004,0.195,0.115c0,0,0.038,0.43-0.099,0.43c0,0-0.868,0.168-1.384,0.598L0.955,4.674L1.021,4.459z"/>
		<path opacity="0.5" clip-path="url(#SVGID_2_)" fill="#D18A00" d="M4.717,1.248c0,0-0.625,0.803-1.776,1.166
			c0,0-1.942,0.659-1.383,1.069c0,0,1.399,0.561,2.683,0.15c0,0-0.431-1.06,0.665-2.119l0.388-0.647L4.717,1.248z"/>
	</g>
</g>
</svg>
